Coordinates
version=1
nRows=14
nColumns=63
inDegrees=yes

Units are S.I. units (second, meters, Newtons, ...)
If the header above contains a line with 'inDegrees', this indicates whether rotational values are in degrees (yes) or radians (no).

endheader
time	pelvis_tilt	pelvis_list	pelvis_rotation	pelvis_tx	pelvis_ty	pelvis_tz	hip_flexion_r	hip_adduction_r	hip_rotation_r	knee_angle_r	knee_angle_r_beta	ankle_angle_r	subtalar_angle_r	mtp_angle_r	hip_flexion_l	hip_adduction_l	hip_rotation_l	knee_angle_l	knee_angle_l_beta	ankle_angle_l	subtalar_angle_l	mtp_angle_l	L5_S1_Flex_Ext	L5_S1_Lat_Bending	L5_S1_axial_rotation	L4_L5_Flex_Ext	L4_L5_Lat_Bending	L4_L5_axial_rotation	L3_L4_Flex_Ext	L3_L4_Lat_Bending	L3_L4_axial_rotation	L2_L3_Flex_Ext	L2_L3_Lat_Bending	L2_L3_axial_rotation	L1_L2_Flex_Ext	L1_L2_Lat_Bending	L1_L2_axial_rotation	L1_T12_Flex_Ext	L1_T12_Lat_Bending	L1_T12_axial_rotation	Abs_r3	Abs_r2	Abs_r1	Abs_t1	Abs_t2	neck_flexion	neck_bending	neck_rotation	arm_flex_r	arm_add_r	arm_rot_r	elbow_flex_r	pro_sup_r	wrist_flex_r	wrist_dev_r	arm_flex_l	arm_add_l	arm_rot_l	elbow_flex_l	pro_sup_l	wrist_flex_l	wrist_dev_l
2.135593	3.490449	0.234134	89.734025	0.153774	0.949023	0.723463	0.100307	3.078951	-16.578658	14.028720	0.244847	17.016673	18.534205	0.000000	0.198440	-4.514574	4.361211	13.915794	0.242876	18.354432	-10.034713	0.000000	-1.662355	1.897068	9.756916	-3.087159	2.523101	10.366723	-2.731082	4.612532	10.366723	-1.899905	4.612532	8.537301	-1.543663	3.868501	7.927494	-0.949869	2.938559	7.317687	-11.874033	21.460015	54.265038	0.000000	0.000000	-10.545240	-8.603315	-38.768985	-35.532342	1.267020	-68.364326	147.257420	75.953524	8.841554	-6.614221	38.191837	20.008340	183.730831	0.040476	0.430773	-69.925393	-24.651524
2.152542	3.518605	-0.549367	88.840421	0.154706	0.950740	0.721445	0.672059	3.137686	-15.872420	13.526715	0.236086	16.340575	18.607173	0.000000	0.590595	-4.504876	4.100670	13.468519	0.235070	17.628816	-10.225816	0.000000	-1.626907	1.900993	9.759061	-3.021328	2.528321	10.369003	-2.672845	4.622075	10.369003	-1.859392	4.622075	8.539179	-1.510745	3.876506	7.929237	-0.929614	2.944639	7.319296	-11.620831	21.504417	54.276971	0.000000	0.000000	-11.257304	-9.654903	-38.274523	-33.611614	-0.487694	-70.865819	147.117995	75.472141	8.777264	-6.435391	35.295620	18.607882	185.089917	0.040336	0.424359	-69.927185	-24.655058
2.169492	3.504682	-1.149749	88.095200	0.155822	0.952405	0.720028	1.090972	3.184490	-15.252142	13.056377	0.227877	15.786410	18.665325	0.000000	0.876942	-4.485817	3.890421	13.077574	0.228247	17.015857	-10.286947	0.000000	-1.600533	1.912019	9.852166	-2.972349	2.542986	10.467926	-2.629515	4.648884	10.467926	-1.829249	4.648884	8.620645	-1.486255	3.898990	8.004885	-0.914544	2.961718	7.389124	-11.432444	21.629146	54.794791	0.000000	0.000000	-11.709162	-10.292545	-38.003950	-32.110980	-1.869963	-73.266108	145.966215	75.194241	8.089968	-5.811067	32.898537	17.747601	186.813265	0.039950	0.418638	-69.929318	-24.662127
2.186441	3.442085	-1.535319	87.538491	0.157090	0.953831	0.719257	1.334325	3.210448	-14.747764	12.644516	0.220688	15.413650	18.699444	0.000000	1.047087	-4.451842	3.725760	12.774583	0.222959	16.582494	-10.187245	0.000000	-1.585170	1.929436	10.030372	-2.943820	2.566149	10.657270	-2.604276	4.691230	10.657270	-1.811691	4.691230	8.776576	-1.471989	3.934505	8.149677	-0.905766	2.988696	7.522779	-11.322712	21.826162	55.785921	0.000000	0.000000	-11.839089	-10.493233	-37.956112	-31.103879	-2.648485	-75.346242	143.893801	75.141592	6.817364	-4.770829	31.231741	17.530787	188.505278	0.039372	0.413739	-69.931667	-24.672129
2.203390	3.334712	-1.681271	87.157533	0.158471	0.954868	0.719171	1.396100	3.208079	-14.330744	12.336177	0.215307	15.270224	18.710505	0.000000	1.084546	-4.394851	3.616151	12.580192	0.219566	16.360397	-10.011020	0.000000	-1.585435	1.950985	10.280414	-2.944311	2.594810	10.922940	-2.604711	4.743625	10.922940	-1.811994	4.743625	8.995363	-1.472235	3.978449	8.352837	-0.905917	3.022076	7.710311	-11.324603	22.069934	57.176580	0.000000	0.000000	-11.589545	-10.239894	-38.126007	-30.672831	-2.676048	-76.863078	141.109576	75.306881	5.010101	-3.218898	30.514501	17.985620	189.935938	0.038619	0.407026	-69.934125	-24.683376
2.220339	3.190959	-1.594923	86.998713	0.159803	0.955417	0.719801	1.289825	3.175905	-14.047265	12.150020	0.212058	15.366022	18.682897	0.000000	1.019727	-4.319865	3.549617	12.524965	0.218602	16.380745	-9.710894	0.000000	-1.601341	1.974765	10.570933	-2.973850	2.626438	11.231616	-2.630843	4.801444	11.231616	-1.830172	4.801444	9.249566	-1.487005	4.026941	8.588883	-0.915006	3.058911	7.928199	-11.438217	22.338940	58.792355	0.000000	0.000000	-10.973948	-9.593720	-38.506334	-30.937628	-1.873543	-77.510688	137.865562	75.825091	2.350934	-1.455009	30.871195	19.094302	190.862579	0.037756	0.402472	-69.936575	-24.696284
2.237288	3.032017	-1.297412	87.043062	0.161004	0.955461	0.721109	1.046162	3.120460	-13.890028	12.110180	0.211363	15.673818	18.623831	0.000000	0.878505	-4.250566	3.409413	12.626161	0.220368	16.667581	-9.182607	0.000000	-1.631858	1.998894	10.878475	-3.030523	2.658529	11.558380	-2.680980	4.860111	11.558380	-1.865051	4.860111	9.518666	-1.515343	4.076145	8.838761	-0.932444	3.096287	8.158857	-11.656198	22.611890	60.502817	0.000000	0.000000	-10.058032	-8.611978	-39.095070	-31.968152	-0.231994	-77.251419	134.378167	76.547385	-0.532560	0.165967	32.330304	20.780200	191.295766	0.036819	0.400986	-69.938934	-24.710256
2.254237	2.867867	-0.824353	87.254128	0.162013	0.955040	0.723010	0.695559	3.042532	-13.825233	12.210551	0.213114	16.148223	18.529819	0.000000	0.675087	-4.177461	3.220938	12.859175	0.224435	17.164026	-8.563180	0.000000	-1.675295	2.021199	11.186123	-3.111191	2.688194	11.885256	-2.752343	4.914342	11.885256	-1.914695	4.914342	9.787858	-1.555679	4.121628	9.088725	-0.957264	3.130837	8.389592	-11.966468	22.864203	62.213860	0.000000	0.000000	-8.902489	-7.358609	-39.879710	-33.728504	2.190530	-76.226580	130.922439	77.350518	-2.912540	1.609967	34.800731	22.938557	191.369116	0.035814	0.403123	-69.941147	-24.724662
2.271186	2.706386	-0.220755	87.654104	0.162731	0.954224	0.725402	0.274806	2.939420	-13.914199	12.447986	0.217258	16.744875	18.420303	0.000000	0.448740	-4.100941	3.011657	13.217876	0.230695	17.833159	-7.860808	0.000000	-1.728449	2.040396	11.471987	-3.209903	2.713726	12.188986	-2.839669	4.961018	12.188986	-1.975445	4.961018	10.037989	-1.605038	4.160775	9.320990	-0.987636	3.160573	8.603990	-12.346139	23.081363	63.803751	0.000000	0.000000	-7.554138	-5.909390	-40.856658	-36.061049	5.260428	-74.782636	127.709064	78.286044	-3.696447	2.263102	38.093156	25.445027	191.268657	0.034806	0.409347	-69.943078	-24.738548
2.288136	2.558985	0.460223	88.177523	0.163116	0.953121	0.728109	-0.175344	2.814172	-14.103197	12.798545	0.223377	17.402394	18.302162	0.000000	0.210741	-4.011733	2.820662	13.653267	0.238294	18.599094	-7.225471	0.000000	-1.788254	2.057204	11.723489	-3.320967	2.736081	12.456207	-2.937923	5.001885	12.456207	-2.043796	5.001885	10.258053	-1.660573	4.195049	9.525335	-1.021808	3.186608	8.792616	-12.773320	23.271498	65.202527	0.000000	0.000000	-6.148262	-4.437025	-41.992257	-38.731908	8.724822	-73.226904	125.118133	78.876805	-2.645578	2.751411	41.909412	28.126634	191.095334	0.033874	0.419563	-69.944599	-24.751169
2.305085	2.443475	1.150066	88.782789	0.163111	0.951797	0.730879	-0.602883	2.680821	-14.359405	13.233360	0.230966	18.078394	18.184131	0.000000	-0.003465	-3.919716	2.655761	14.135996	0.246720	19.425944	-6.691583	0.000000	-1.849366	2.074179	11.918757	-3.434458	2.758659	12.663680	-3.038324	5.043160	12.663680	-2.113641	5.043160	10.428913	-1.717322	4.229667	9.683990	-1.056728	3.212904	8.939068	-13.209840	23.463533	66.288552	0.000000	0.000000	-4.815333	-3.167504	-43.179379	-41.487640	12.271300	-71.868908	123.508953	79.153626	0.011654	3.058911	45.901601	30.773906	190.884160	0.033093	0.430895	-69.945580	-24.760548
2.322034	2.364066	1.745417	89.388723	0.162720	0.950331	0.733332	-0.927994	2.545864	-14.608047	13.711516	0.239311	18.724222	18.064583	0.000000	-0.148681	-3.830580	2.442244	14.600679	0.254830	20.267987	-6.215815	0.000000	-1.901363	2.086705	12.041795	-3.531022	2.775317	12.794407	-3.123750	5.073613	12.794407	-2.173068	5.073613	10.536571	-1.765606	4.255208	9.783958	-1.086439	3.232305	9.031346	-13.581249	23.605219	66.972851	0.000000	0.000000	-3.616005	-2.175308	-44.282761	-44.043995	15.542028	-70.816932	122.928851	78.692148	4.311784	3.228048	49.681474	33.166079	190.569899	0.032571	0.441038	-69.945851	-24.764911
2.338983	2.320286	2.176880	89.962794	0.161903	0.948805	0.735132	-1.108023	2.412231	-14.826129	14.194726	0.247745	19.311823	17.953992	0.000000	-0.198603	-3.732615	2.285845	14.999490	0.261790	21.032253	-5.948172	0.000000	-1.936833	2.090860	12.058870	-3.596893	2.780844	12.812549	-3.182023	5.083717	12.812549	-2.213607	5.083717	10.551511	-1.798543	4.263682	9.797832	-1.106706	3.238742	9.044152	-13.834605	23.652226	67.067817	0.000000	0.000000	-2.604902	-1.489066	-45.124260	-46.163254	18.176568	-69.908889	123.352311	77.797903	9.537112	2.866053	52.904206	35.074130	189.961833	0.032410	0.448542	-69.945327	-24.763338
2.355932	2.319527	2.386940	90.460788	0.160652	0.947266	0.736047	-1.109143	2.294223	-14.977711	14.642549	0.255561	19.813931	17.856505	0.000000	-0.123233	-3.640053	2.152272	15.309205	0.267196	21.699566	-5.835821	0.000000	-1.949310	2.085956	11.952662	-3.620064	2.774322	12.699704	-3.202522	5.071794	12.699704	-2.227867	5.071794	10.458580	-1.810129	4.253682	9.711538	-1.113836	3.231146	8.964497	-13.923727	23.596753	66.477123	0.000000	0.000000	-1.822583	-1.138798	-45.549183	-47.612860	19.899626	-69.140813	124.733876	76.333556	15.294905	2.267694	55.287516	36.342707	188.922936	0.032660	0.452292	-69.944019	-24.755582
